<?xml version="1.0" encoding="UTF-8"?>
<svg version="1.1" xmlns="http://www.w3.org/2000/svg" width="512" height="512">
<path d="M0 0 C0.99422974 0.00215515 1.98845947 0.0043103 3.01281738 0.00653076 C17.48109955 0.05686686 31.66189071 0.35398296 45.875 3.3125 C46.85130371 3.51117676 47.82760742 3.70985352 48.83349609 3.91455078 C97.21339984 14.03634541 141.2005519 35.95291013 176.875 70.3125 C177.8640332 71.26068604 177.8640332 71.26068604 178.87304688 72.22802734 C188.36130305 81.37247479 197.1012044 90.66984009 204.875 101.3125 C205.73306152 102.46355017 206.59113451 103.61459177 207.44921875 104.765625 C213.48736829 112.95680614 218.84595521 121.47054105 223.875 130.3125 C224.23948242 130.94430176 224.60396484 131.57610352 224.97949219 132.22705078 C246.4740329 169.78084014 256.35126533 212.44304389 256.1875 255.4375 C256.18476578 256.9278476 256.18476578 256.9278476 256.18197632 258.44830322 C256.13719978 272.942192 255.67610213 287.05386097 252.875 301.3125 C252.71402832 302.20807617 252.55305664 303.10365234 252.38720703 304.02636719 C244.49797508 347.63313051 224.80850867 388.77106217 195.875 422.3125 C195.24078125 423.05757813 194.6065625 423.80265625 193.953125 424.5703125 C182.14198485 438.07529833 169.39139772 450.74668743 154.875 461.3125 C153.72505169 462.16899066 152.57531411 463.02576433 151.42578125 463.8828125 C143.23410474 469.9234414 134.71854922 475.28255071 125.875 480.3125 C125.24319824 480.67698242 124.61139648 481.04146484 123.96044922 481.41699219 C97.93166464 496.31500327 68.51361377 505.96041257 38.875 510.3125 C37.67254639 510.48910156 36.47009277 510.66570312 35.23120117 510.84765625 C23.51493596 512.45161689 11.87584274 512.71324553 0.0625 512.6875 C-0.92433777 512.68662384 -1.91117554 512.68574768 -2.92791748 512.68484497 C-67.88219852 512.49532667 -130.29571624 487.41579016 -177.125 442.3125 C-177.78435547 441.68037598 -178.44371094 441.04825195 -179.12304688 440.39697266 C-188.61130305 431.25252521 -197.3512044 421.95515991 -205.125 411.3125 C-205.98306152 410.16144983 -206.84113451 409.01040823 -207.69921875 407.859375 C-213.73736829 399.66819386 -219.09595521 391.15445895 -224.125 382.3125 C-224.48948242 381.68069824 -224.85396484 381.04889648 -225.22949219 380.39794922 C-240.15973018 354.31285999 -249.63885054 324.97664886 -254.125 295.3125 C-254.38990234 293.62882324 -254.38990234 293.62882324 -254.66015625 291.91113281 C-256.3170586 280.29802257 -256.52373513 268.78070055 -256.5 257.0625 C-256.49945618 256.05048523 -256.49891235 255.03847046 -256.49835205 253.99578857 C-256.4576051 237.46132605 -255.53386907 221.54185136 -252.125 205.3125 C-251.91601074 204.29720215 -251.70702148 203.2819043 -251.49169922 202.23583984 C-242.71380189 160.92383315 -223.71113066 122.2919774 -196.125 90.3125 C-195.49078125 89.56742187 -194.8565625 88.82234375 -194.203125 88.0546875 C-182.39198485 74.54970167 -169.64139772 61.87831257 -155.125 51.3125 C-153.97505169 50.45600934 -152.82531411 49.59923567 -151.67578125 48.7421875 C-143.48410474 42.7015586 -134.96854922 37.34244929 -126.125 32.3125 C-125.49319824 31.94801758 -124.86139648 31.58353516 -124.21044922 31.20800781 C-98.17975097 16.30890142 -68.76448404 6.66904478 -39.125 2.3125 C-37.32675781 2.04651001 -37.32675781 2.04651001 -35.4921875 1.77514648 C-23.66616559 0.14661384 -11.92341476 -0.04652724 0 0 Z M-42.125 208.3125 C-42.84171875 208.91707031 -43.5584375 209.52164063 -44.296875 210.14453125 C-54.53280831 219.56714428 -62.16128391 233.65397508 -63.31787109 247.64575195 C-64.05454715 269.63664842 -59.92137477 285.54266953 -44.5078125 302.02734375 C-31.21660061 314.77383384 -15.60975159 319.8661709 2.46118164 319.80224609 C19.4519624 319.33311807 33.10301136 312.48657835 45.45703125 300.87890625 C59.00930063 286.49467203 63.50603338 270.41066917 63.21484375 251.08984375 C62.54546755 234.17767905 54.04802226 219.78145096 41.875 208.3125 C16.87184025 187.71199913 -17.31665255 187.3054316 -42.125 208.3125 Z M-234.125 255.3125 C-235.59775478 302.05882761 -220.5675528 351.28187565 -193.125 389.3125 C-192.42890625 390.281875 -191.7328125 391.25125 -191.015625 392.25 C-176.64186165 411.82278414 -159.91804133 430.11743021 -140.125 444.3125 C-139.06152344 445.0859375 -137.99804688 445.859375 -136.90234375 446.65625 C-104.04509884 469.97171905 -67.04749151 484.18095333 -27.125 489.3125 C-26.16980469 489.45389404 -26.16980469 489.45389404 -25.1953125 489.59814453 C28.74932719 496.83304222 88.84019772 481.08761301 132.875 449.3125 C133.844375 448.61640625 134.81375 447.9203125 135.8125 447.203125 C155.38528414 432.82936165 173.67993021 416.10554133 187.875 396.3125 C188.6484375 395.24902344 189.421875 394.18554688 190.21875 393.08984375 C213.5628806 360.19220764 227.65871238 323.255547 232.875 283.3125 C233.07222656 281.92804688 233.07222656 281.92804688 233.2734375 280.515625 C234.26834039 272.50262331 233.95914298 264.37152739 233.875 256.3125 C229.46556808 255.08797993 226.02673097 255.58995138 221.55078125 256.38671875 C220.05464307 256.64359381 218.55838025 256.89974365 217.06201172 257.15527344 C216.2705072 257.29316284 215.47900269 257.43105225 214.66351318 257.57312012 C178.29884618 263.84261209 141.70879573 266.000626 104.875 267.3125 C104.73513672 267.88991943 104.59527344 268.46733887 104.45117188 269.06225586 C99.67671553 288.43833534 93.26207943 304.58890078 80.875 320.3125 C79.92367187 321.54033203 79.92367187 321.54033203 78.953125 322.79296875 C61.94758808 343.32315755 35.65212561 354.86637125 9.61328125 357.8515625 C-20.45709517 360.60725308 -48.60898479 351.12834664 -71.75 332.0625 C-89.98177591 316.50425027 -101.07340594 294.82088388 -106.1809082 271.60400391 C-106.35846146 270.79879303 -106.53601471 269.99358215 -106.71894836 269.16397095 C-106.8529454 268.55298553 -106.98694244 267.94200012 -107.125 267.3125 C-108.23794434 267.27286133 -109.35088867 267.23322266 -110.49755859 267.19238281 C-149.37492878 265.77096041 -187.70913595 262.78998014 -226.06349182 256.12512207 C-228.79996681 255.65637516 -231.34114655 255.3125 -234.125 255.3125 Z " fill="#2F3B42" transform="translate(256.125,-0.3125)"/>
</svg>
