<?xml version="1.0" encoding="UTF-8"?>
<svg version="1.1" xmlns="http://www.w3.org/2000/svg" width="512" height="512">
<path d="M0 0 C8.89536089 3.96266657 16.16825738 12.01331795 23.24609375 18.52734375 C26.83207284 21.74709519 30.56701492 24.75905176 34.31640625 27.78515625 C37.80550916 30.66480887 41.12996921 33.70693876 44.47265625 36.75390625 C47.06962393 39.06187598 49.73404013 41.25555863 52.4375 43.4375 C57.211403 47.29825137 61.73388428 51.37437075 66.25 55.53125 C68.93737634 57.94378104 71.68965444 60.2325621 74.5 62.5 C78.28460334 65.55348679 81.92207537 68.70668301 85.5 72 C89.9698512 76.11378909 94.59044893 79.97087297 99.31640625 83.78515625 C102.80550916 86.66480887 106.12996921 89.70693876 109.47265625 92.75390625 C112.06962393 95.06187598 114.73404013 97.25555863 117.4375 99.4375 C121.24087503 102.51336588 124.90082652 105.68753166 128.5 109 C133.82698678 113.89445366 139.35250251 118.48200201 145 123 C145.81855469 123.67546875 146.63710938 124.3509375 147.48046875 125.046875 C148.25003906 125.67078125 149.01960938 126.2946875 149.8125 126.9375 C150.47894531 127.48277344 151.14539063 128.02804687 151.83203125 128.58984375 C158.82029507 133.1353631 165.5988598 132.39991856 174 133 C174 181.18 174 229.36 174 279 C181.26 279 188.52 279 196 279 C201 283 201 283 201.6640625 285.21875 C201.64472656 286.34796875 201.64472656 286.34796875 201.625 287.5 C201.63789063 288.2528125 201.65078125 289.005625 201.6640625 289.78125 C200.60359302 293.32446569 199.21900769 294.12575029 196 296 C191.80504661 296.59237953 187.63685337 296.50450066 183.40698242 296.45410156 C182.12853455 296.45468567 180.85008667 296.45526978 179.53289795 296.45587158 C176.03514562 296.45701762 172.53794378 296.43352703 169.0403192 296.40557575 C165.38215802 296.38054326 161.72398374 296.37821866 158.06575012 296.37347412 C151.14197353 296.36104972 144.21845006 296.32823556 137.29478484 296.28807616 C129.41093692 296.24334163 121.5270768 296.22136722 113.64313352 296.20129442 C97.42860759 296.15950228 81.21433611 296.08916088 65 296 C64.99853344 295.21462136 64.99706688 294.42924273 64.99555588 293.62006474 C64.95846681 274.4895976 64.89942422 255.35931275 64.81609726 236.2289896 C64.77632717 226.97760804 64.74392437 217.72631129 64.72900391 208.47485352 C64.71597686 200.40909554 64.68898535 192.34352433 64.64538693 184.27787155 C64.62279574 180.00910688 64.60708791 175.74057238 64.60811615 171.47174263 C64.60886416 167.44887892 64.59085754 163.42652355 64.55883217 159.40379143 C64.5503549 157.93210546 64.54856843 156.46036234 64.55419731 154.98866272 C64.58136955 146.78830446 64.25316022 140.14543951 60 133 C59.195625 131.63875 59.195625 131.63875 58.375 130.25 C48.95564697 121.32640239 37.84032069 122.26279048 25.6875 122.3359375 C23.70792341 122.33256363 21.72834885 122.32770627 19.7487793 122.32144165 C15.61324208 122.31409729 11.47824727 122.32469703 7.34277344 122.34814453 C2.06368324 122.37663066 -3.21413567 122.36021358 -8.49317932 122.33028221 C-12.57695959 122.31214321 -16.66044255 122.31799746 -20.74423218 122.33092117 C-22.68972935 122.33423696 -24.63525424 122.33023303 -26.58071899 122.31852341 C-41.14196256 121.92388528 -41.14196256 121.92388528 -54 128 C-59.79071781 134.11175712 -62.23691922 140.0771598 -62.2784729 148.56796265 C-62.28963638 149.87199036 -62.30079987 151.17601807 -62.31230164 152.51956177 C-62.31466623 153.95233125 -62.31684195 155.38510106 -62.31884766 156.81787109 C-62.328152 158.33598359 -62.33832143 159.85409099 -62.34928894 161.37219238 C-62.37654596 165.48326544 -62.39172558 169.5943043 -62.40471697 173.70544386 C-62.42036633 178.0056242 -62.4471508 182.30573492 -62.4727478 186.60586548 C-62.51950363 194.74422872 -62.5562632 202.88260511 -62.58942068 211.02103388 C-62.62766465 220.28827071 -62.67706886 229.55543757 -62.72740483 238.82261539 C-62.83067714 257.88169235 -62.91995283 276.94081205 -63 296 C-79.99388609 296.09344755 -96.98769199 296.16398116 -113.98177624 296.20724869 C-121.87245969 296.22787268 -129.76298348 296.25599001 -137.65356445 296.30175781 C-144.53112419 296.34163076 -151.40856829 296.367434 -158.2862404 296.37635398 C-161.92786715 296.38156802 -165.56916311 296.393819 -169.21068382 296.42292023 C-173.27626586 296.4551467 -177.34127308 296.45595913 -181.40698242 296.45410156 C-182.61395279 296.46848267 -183.82092316 296.48286377 -185.06446838 296.49768066 C-193.21463404 296.45727506 -193.21463404 296.45727506 -197.24555969 294.11029053 C-199.24609354 291.70399171 -199.67812451 290.60247112 -199.625 287.5 C-199.63789063 286.7471875 -199.65078125 285.994375 -199.6640625 285.21875 C-199 283 -199 283 -194 279 C-186.74 279 -179.48 279 -172 279 C-172 230.82 -172 182.64 -172 133 C-167.38 132.67 -162.76 132.34 -158 132 C-151.86624113 130.31885593 -147.95494279 127.75903712 -143.375 123.5625 C-142.15261855 122.47885661 -140.92995434 121.39553211 -139.70703125 120.3125 C-139.09166504 119.76078125 -138.47629883 119.2090625 -137.84228516 118.640625 C-134.9545264 116.06896599 -132.00684337 113.56890042 -129.0625 111.0625 C-123.55688347 106.34990846 -118.07856301 101.6062794 -112.60571289 96.85571289 C-107.84338803 92.72433908 -103.06014018 88.61804318 -98.26953125 84.51953125 C-93.99861157 80.8628562 -89.74593331 77.18564521 -85.5 73.5 C-80.10745021 68.8190444 -74.69553564 64.16164336 -69.26953125 59.51953125 C-64.99861157 55.8628562 -60.74593331 52.18564521 -56.5 48.5 C-51.10745021 43.8190444 -45.69553564 39.16164336 -40.26953125 34.51953125 C-35.99861112 30.86285581 -31.74598446 27.18558682 -27.5 23.5 C-22.49086136 19.15296264 -17.47202697 14.81761895 -12.4375 10.5 C-11.59832031 9.77973633 -11.59832031 9.77973633 -10.7421875 9.04492188 C-7.18659391 5.99910616 -3.6024295 2.99028734 0 0 Z " fill="#000000" transform="translate(255,153)"/>
<path d="M0 0 C4.22983459 3.39870478 8.28683593 6.99847743 12.36181641 10.57958984 C15.36285504 13.18168266 18.48298488 15.63028221 21.59765625 18.09375 C24.12721017 20.10094075 26.62825938 22.13965331 29.125 24.1875 C34.42551408 28.53452217 39.74452474 32.85840997 45.06762695 37.17773438 C50.01677667 41.19539802 54.94707313 45.23502667 59.86328125 49.29296875 C62.09023641 51.12224194 62.09023641 51.12224194 65 53 C64.98952637 52.34515625 64.97905273 51.6903125 64.96826172 51.015625 C64.92634641 48.01045668 64.90056191 45.00535016 64.875 42 C64.85824219 40.97003906 64.84148437 39.94007812 64.82421875 38.87890625 C64.78608198 32.89143339 65.07786959 27.69447479 67 22 C71.82026152 17.30024501 75.36203044 16.8250113 81.859375 16.76171875 C82.64137268 16.753647 83.42337036 16.74557526 84.22906494 16.73725891 C85.88673689 16.7234178 87.54443735 16.71269576 89.20214844 16.70483398 C91.72646879 16.68766009 94.24946586 16.64378135 96.7734375 16.59960938 C98.38540705 16.5894787 99.99738773 16.58096377 101.609375 16.57421875 C102.35958923 16.55671066 103.10980347 16.53920258 103.88275146 16.52116394 C109.09343062 16.54251918 112.13007774 17.49656378 116 21 C118.53866702 25.93242609 119.35840151 29.42082683 119.22607422 35.04589844 C119.21538406 35.71200134 119.20469391 36.37810425 119.19367981 37.06439209 C119.17013961 38.49890826 119.14041216 39.93333398 119.10503769 41.36760712 C119.05381581 43.64818586 119.0303621 45.9274649 119.01565552 48.20855713 C118.97370343 54.68936045 118.92073707 61.1684315 118.75683594 67.64746094 C118.65825985 71.62457071 118.6243899 75.59791313 118.6312294 79.5761795 C118.62197956 81.08019211 118.58947215 82.58426867 118.53200912 84.08721161 C118.12354482 92.32908125 118.12354482 92.32908125 121.28063393 99.71080208 C124.80122374 103.35759674 128.81045671 106.17514311 133 109 C134.28958908 110.00730861 135.57201695 111.02402821 136.83984375 112.05859375 C138.37318359 113.23615234 138.37318359 113.23615234 139.9375 114.4375 C145.44469312 118.70643079 150.75694658 123.16351925 156.02441406 127.72363281 C160.12594053 131.26933412 164.30427615 134.69583754 168.5546875 138.0625 C171.32097113 140.25431578 174.07085179 142.46493719 176.8125 144.6875 C178.12154297 145.74517578 178.12154297 145.74517578 179.45703125 146.82421875 C184.50739509 151.14534418 187.48835269 153.76414295 188.58203125 160.515625 C188.89624023 162.39314453 188.89624023 162.39314453 189.21679688 164.30859375 C189.51166992 166.25958984 189.51166992 166.25958984 189.8125 168.25 C190.02841797 169.53519531 190.24433594 170.82039062 190.46679688 172.14453125 C191.54613798 178.82616665 192.37039365 185.23123762 192 192 C190.31259557 193.68740443 188.17680499 193.21424499 185.86035156 193.28808594 C184.76120422 193.32351501 183.66205688 193.35894409 182.52960205 193.39544678 C177.44859082 193.519615 172.36769058 193.61019792 167.28564453 193.6796875 C164.61400229 193.7195736 161.94996985 193.79411759 159.27880859 193.88476562 C133.54393017 194.74312871 133.54393017 194.74312871 126.02734375 187.7421875 C124.31238018 185.86315104 122.63318301 183.95053616 121 182 C119.13610903 180.41986375 117.24402604 178.87170548 115.3125 177.375 C110.91773359 173.80067479 106.71296517 170.06142322 102.52734375 166.24609375 C99.93037607 163.93812402 97.26595987 161.74444137 94.5625 159.5625 C89.79003797 155.70291397 85.26890891 151.62800009 80.75390625 147.47265625 C77.16792716 144.25290481 73.43298508 141.24094824 69.68359375 138.21484375 C66.19306571 135.33401493 62.86725932 132.29065597 59.5234375 129.2421875 C56.94917642 126.95484096 54.30710511 124.78451729 51.625 122.625 C47.07219493 118.94428153 42.76582589 115.07351352 38.4831543 111.08862305 C34.37239043 107.28614986 30.07733477 103.75736701 25.71484375 100.24609375 C22.89326505 97.9116941 20.19409288 95.48009402 17.5 93 C13.92207537 89.70668301 10.28460334 86.55348679 6.5 83.5 C1.75481913 79.67150179 -2.73513 75.6254047 -7.21875 71.49609375 C-10.93307729 68.16258934 -14.7927195 65.02937726 -18.6875 61.91015625 C-21 60 -21 60 -22.5 58.18359375 C-23.99132222 56.75138447 -23.99132222 56.75138447 -26.3671875 57.03125 C-29.72281327 58.26596097 -31.55683431 60.01616214 -34.125 62.5 C-35.09412625 63.41902176 -36.06554087 64.33563556 -37.0390625 65.25 C-37.53051758 65.71277344 -38.02197266 66.17554688 -38.52832031 66.65234375 C-40.76988756 68.70500652 -43.12988247 70.59847304 -45.5 72.5 C-49.28460334 75.55348679 -52.92207537 78.70668301 -56.5 82 C-60.94727112 86.09351091 -65.54717463 89.92442499 -70.25 93.71875 C-74.03905407 96.86194258 -77.63269352 100.20158595 -81.25390625 103.53515625 C-83.91875166 105.92707297 -86.64831825 108.19254884 -89.4375 110.4375 C-93.43224254 113.65943317 -97.24552109 117.00657611 -101 120.5 C-105.6324838 124.80996438 -110.42122233 128.85061168 -115.3515625 132.8203125 C-117.97275119 134.97757399 -120.49154281 137.21311 -123 139.5 C-126.39598682 142.59555196 -129.86171531 145.55151207 -133.4375 148.4375 C-137.24087503 151.51336588 -140.90082652 154.68753166 -144.5 158 C-148.9698512 162.11378909 -153.59044893 165.97087297 -158.31640625 169.78515625 C-160.94708557 171.95632827 -163.47942424 174.20241357 -166 176.5 C-171.16804448 181.2057274 -176.53082533 185.64912303 -182 190 C-182.59347733 190.52777039 -183.18695465 191.05554077 -183.79841614 191.5993042 C-186.6010253 193.38238544 -188.36326682 193.36849439 -191.6706543 193.35644531 C-192.80830734 193.35944641 -193.94596039 193.36244751 -195.11808777 193.36553955 C-196.34111099 193.35319275 -197.56413422 193.34084595 -198.82421875 193.328125 C-200.7099334 193.32531525 -200.7099334 193.32531525 -202.63374329 193.32244873 C-205.28942219 193.31572714 -207.94433291 193.30345848 -210.59985352 193.28125 C-214.009775 193.25288161 -217.4194576 193.24202901 -220.82948589 193.2375679 C-224.07775993 193.2324239 -227.3259761 193.21788672 -230.57421875 193.203125 C-231.80331467 193.19887512 -233.03241058 193.19462524 -234.29875183 193.19024658 C-235.42694839 193.18063904 -236.55514496 193.17103149 -237.7175293 193.16113281 C-239.21499947 193.15089081 -239.21499947 193.15089081 -240.74272156 193.14044189 C-243 193 -243 193 -244 192 C-244.94816745 179.83747487 -245.09659678 160.57948566 -238.64599609 149.72070312 C-235.57319574 146.32620855 -231.88254683 144.18802501 -227.86376953 142.06884766 C-224.74025413 140.27755208 -222.17508857 137.88983909 -219.5 135.5 C-214.61640907 131.30054077 -209.60415514 127.29591907 -204.52050781 123.3425293 C-198.94277049 118.99001751 -193.49005972 114.49210343 -188.03833008 109.98339844 C-183.60346698 106.31671969 -179.14213487 102.68923025 -174.63671875 99.109375 C-171.15592977 96.32474382 -167.70475954 93.50431373 -164.25 90.6875 C-159.14624997 86.52744642 -154.00762144 82.42027374 -148.8125 78.375 C-143.72636771 74.4113986 -138.78365884 70.31009715 -133.88500977 66.11791992 C-129.52325347 62.40191135 -125.04320204 58.8596838 -120.52050781 55.3425293 C-114.94277049 50.99001751 -109.49005972 46.49210343 -104.03833008 41.98339844 C-99.60346698 38.31671969 -95.14213487 34.68923025 -90.63671875 31.109375 C-87.85136722 28.88109378 -85.08555905 26.63001042 -82.32104492 24.37597656 C-75.88694503 19.13039895 -69.42808826 13.92263978 -62.87475586 8.82641602 C-60.30805703 6.82845545 -57.77920915 4.81361811 -55.29296875 2.71484375 C-38.36845368 -11.54439335 -18.13621793 -13.08984091 0 0 Z " fill="#000000" transform="translate(282,78)"/>
<path d="M0 0 C0.83106766 -0.0065712 1.66213531 -0.0131424 2.51838684 -0.01991272 C5.27552373 -0.03966371 8.03260612 -0.05131218 10.78979492 -0.0612793 C11.73052038 -0.06535482 12.67124584 -0.06943035 13.64047813 -0.07362938 C18.61936601 -0.09449761 23.59822627 -0.10879617 28.57714844 -0.11816406 C33.72219671 -0.1292313 38.86681282 -0.16363267 44.01170826 -0.20333576 C47.96568104 -0.2294696 51.91955035 -0.23785301 55.87360191 -0.24144554 C57.77022916 -0.24631972 59.66685153 -0.25795729 61.56339455 -0.27648354 C64.2183935 -0.30080687 66.87226771 -0.2999226 69.52734375 -0.29296875 C70.31038879 -0.30577881 71.09343384 -0.31858887 71.90020752 -0.33178711 C75.63424702 -0.29615149 77.74908574 0.04294431 80.92216492 2.08137512 C84.2360021 5.49293454 84.0818361 7.56049295 84.07801819 12.22598267 C84.08008018 14.16115501 84.08008018 14.16115501 84.08218384 16.13542175 C84.07864445 17.57327293 84.07500963 19.01112388 84.07128906 20.44897461 C84.07100712 21.95663959 84.07116506 23.46430471 84.07173157 24.9719696 C84.07201926 29.072972 84.06612699 33.17394534 84.05915761 37.27494097 C84.05291948 41.55775335 84.05231991 45.84056635 84.0511322 50.12338257 C84.04802025 58.23712052 84.03980868 66.35084505 84.02978271 74.46457708 C84.0165309 85.42611143 84.01112057 96.38764943 84.00528049 107.34918976 C83.99586871 124.62513722 83.97594888 141.90105634 83.95776367 159.17700195 C51.61776367 159.17700195 19.27776367 159.17700195 -14.04223633 159.17700195 C-14.20344846 121.01002855 -14.20344846 121.01002855 -14.23754883 105.03442383 C-14.26129712 93.99715759 -14.28923762 82.96001335 -14.34399414 71.92285156 C-14.38385147 63.88506231 -14.40966665 55.8473719 -14.41859031 47.80948657 C-14.42380695 43.55307607 -14.43607489 39.29694834 -14.46515656 35.04062843 C-14.49230832 31.0343007 -14.50068189 27.02837221 -14.49466705 23.02196121 C-14.49576741 21.55177453 -14.50372303 20.08157448 -14.51905823 18.61146736 C-14.53897817 16.60332529 -14.53178646 14.59496896 -14.52325439 12.58674622 C-14.52694157 11.46308057 -14.53062874 10.33941492 -14.53442764 9.1816988 C-13.93023365 5.49325542 -12.61751225 3.83458424 -10.04223633 1.17700195 C-6.8792176 -0.40450741 -3.4742791 0.01183854 0 0 Z " fill="#000000" transform="translate(221.042236328125,289.822998046875)"/>
</svg>
